<?xml version="1.0" encoding="utf-8"?>
<!-- Generator: Adobe Illustrator 22.0.1, SVG Export Plug-In . SVG Version: 6.00 Build 0)  -->
<svg version="1.1" id="layer" xmlns="http://www.w3.org/2000/svg" xmlns:xlink="http://www.w3.org/1999/xlink" x="0px" y="0px"
	 viewBox="0 0 582.6 195.3" style="enable-background:new 0 0 582.6 195.3;" xml:space="preserve">
<g>
	<g>
		<path d="M113.3,41.5c-0.2,0.7-0.4,1.3-0.4,1.8l-0.2,0.2c0,1.1-0.8,2.8-2.3,5.1c-1.8,2.7-3.6,4.9-5.4,6.6c-1.9,1.7-4,2.8-6.3,3.4
			v79.6h-6.5v-37.2H80.1l-0.2,30.2c0,0.8-0.2,1.6-0.5,2.5c-2.3,6-8.2,11.1-17.6,15.5c-8.2,3.7-15.8,5.6-22.8,5.6
			c-5,0-9.3-0.7-12.8-2.1c-7.4-2.9-12.4-4.4-14.9-4.4h-0.4c-0.2,0.1-0.7,0.2-1.4,0.2c-3.7,0.4-6.9,2-9.5,5.1
			c0.4-3.4,1.1-6.4,2.4-8.9c1.2-2.5,2.8-4.7,4.8-6.4c4.3-3.9,9.1-5.8,14.2-5.8c5,0,11.3,2.2,18.8,6.5v-0.2c7.4,4,11.9,6,13.7,6.1
			l1.4-1.9v1.8h0.4c1.3,0,2.5-0.9,3.6-2.6c1.1-1.8,1.7-3.5,1.7-5.3l0.2-0.2v-72c0-4.2,1.9-7.7,5.8-10.5l24.8-17
			c4.2,5,8.4,7.6,12.7,7.6c2.1,0,4.7-1.2,7.9-3.7L113.3,41.5z M71.7,38c-0.6,5.5-3.6,10.3-9.1,14.2c-5.2,3.8-10.6,5.6-16.3,5.6h-0.7
			l-0.2-0.2c-2.9,0-7.3-0.6-13.2-1.9c-6.2-1.3-10.7-1.9-13.4-1.9L18.6,54h-0.7c-1.2,0-3.8,1.3-7.9,3.9v-1.6c0-2.3,0.9-5,2.6-8.1
			c4-6.8,11-10.3,21.1-10.5l1.2-0.5c0.2,0.2,2,0.5,5.4,0.9h1.8c0.6,0.1,1.5,0.3,2.8,0.6c1.3,0.3,2.9,0.6,4.9,1l0.2,0.2h0.4
			c2.1,1.1,5.6,1.6,10.5,1.6c3.5,0,6.7-1.3,9.5-3.9L71.7,38z M59.2,57.5c-0.9,0.4-1.7,1.3-2.4,2.7c-0.6,1.5-1,2.8-1,4.1v45.5
			c0,7-4.1,13.2-12.3,18.6c-2.8,2-5,3-6.7,3l-0.2,0.2h-0.4l-0.4,0.2h-1.8c0.1-0.2,0.3-0.7,0.4-1.3c0.2-0.6,0.4-1.2,0.6-1.7
			c0.1-0.2,0.2-0.5,0.3-0.9c0.1-0.4,0.1-0.6,0.3-0.9v-25.8h-0.7l-0.4-0.2h-1.2c-4,0-6,1.3-6,4l0.2,0.2v0.7l0.2,0.2v1.2
			c-2.8,0-5-1.1-6.7-3.3c-1.6-2.2-2.5-4.7-2.5-7.5c0-9.7,4.7-14.6,14.2-14.6h1.6c0.2,0.1,0.6,0.2,1.1,0.2v-0.7l-0.2-0.2v-0.9
			c0-6.6,2.4-12,7.2-16.3c2.1-2,4.5-3.7,7.1-5.1c2.6-1.4,5.6-2.4,9-3L59.2,57.5z M80.1,54.3v28.1h12.1V58.9C92,59,91.9,59.1,91.8,59
			c-0.1-0.1-0.1-0.1-0.3-0.1C88.3,58.9,84.4,57.4,80.1,54.3z"/>
		<path d="M163.6,103.5c-1.4,0.7-4.2,2.3-8.3,4.7c-4.2,2.4-9.8,5.7-17,9.9c-1.1,0.6-2.2,1.3-3.5,2.3v13.2c3.6,0.6,7,1.3,10.1,2.3
			c3.1,0.9,6,2.1,8.7,3.3l4.2-4.4l4.4,4l-16,17.6l-1.8-0.9c-2.5-1.3-4.9-2.5-7.2-3.6c-2.3-1.1-5-2-8.1-2.5
			c-5.2-1.1-9.6-1.6-13.4-1.6c-1.4,0-2.8,0.1-4.2,0.3c-1.4,0.2-2.8,0.4-4.2,0.6c0.2-0.6,0.5-1.1,0.7-1.5c0.2-0.4,0.5-0.7,0.7-1v0.2
			c0.8-1.3,1.5-2.3,2-3.2c0.5-0.8,0.8-1.3,1-1.4c0.8-1.1,2.4-2.5,4.7-4.2V95.1c0-1.8-0.9-4.7-2.8-8.8v-2.5l1.6,1.6h1.1l0.2,0.2h0.5
			l0.5,0.2h0.7c9.3,0,19.7-3.9,31.3-11.6c0.6,2.1,1.3,4.4,2.3,6.9c0.9,2.5,2.2,5.2,3.9,8.3c1.5,2.7,3,5.2,4.3,7.5
			c1.3,2.3,2.6,4.2,3.8,5.9L163.6,103.5z M138.1,94.6c-0.7-1.6-1.3-3.3-1.9-4.9l-1.4,0.4v22.5l9.5-6.1c-0.5-0.7-1-1.6-1.7-2.7
			c-0.6-1.1-1.4-2.5-2.2-4.3C139.6,97.8,138.8,96.2,138.1,94.6z"/>
		<path d="M250.7,158h-1.1c-1.4,0-2.8-0.3-4.2-1c-1.4-0.6-2.6-1.5-3.7-2.5c-1.1-1.1-1.9-2.3-2.6-3.6c-0.7-1.3-1.1-2.7-1.1-4V99.7
			h-0.4c0.1,0.1,0.1,0.1-0.2,0c-0.2-0.1-0.5-0.2-0.7-0.4c-0.2-0.1-0.5-0.2-0.8-0.4c-0.3-0.1-0.6-0.2-0.8-0.4c-2.5-1.1-4.5-2.6-6-4.6
			l-6.9,5.1v37.6c0.8,0.4,2.1,1.1,3.8,2.3c1.7,1.2,4.1,2.8,7.1,4.7l-15.1,14.6c-6.9-6.2-12.7-9.3-17.4-9.3c-2,0-4,0.7-6.1,2.1
			c1.2-5,4.3-9.4,9.3-13v-37.1c0-3.6-1.6-6.6-4.9-8.8l-11.4,8.8v35.7c0.5,0.2,1,0.4,1.5,0.6c0.5,0.2,1.1,0.4,1.7,0.6
			c1.8,0.7,3.1,1.5,4.1,2.4c1,0.9,1.8,1.8,2.4,2.9l-15.6,15.1c-4.5-6.2-9.5-9.3-15.3-9.3c-2.7,0-4.9,0.5-6.7,1.6
			c0.6-2.3,1.8-4.7,3.6-7.1c1.8-2.4,3.8-4.1,5.9-5v-38.1c0-3-3.5-5.4-10.4-7v-1.2l16.9-17.4c7.3,3.2,11.8,8.8,13.5,16.9l21.1-16.9
			c6.9,4,11.1,9.2,12.7,15.6l19-14.8c4.9,6.3,8.8,9.5,11.8,9.5c2.7,0,5.6-1.1,8.8-3.2v3c0,0.1,0,0.3-0.1,0.4
			c-0.1,0.2-0.1,0.4-0.1,0.6c0,0.2,0,0.5-0.1,0.8c-0.1,0.3-0.1,0.6-0.1,1c-0.2,1.6-0.8,3.1-1.6,4.3c-0.8,1.2-1.9,2.5-3.2,3.8v40.4
			c0,1.2,0.6,2.3,1.7,3.2c1.1,1,2.3,1.5,3.4,1.5c0.7,0,1.8-0.2,3.3-0.7h-0.2l0.4-0.2h0.4l0.4-0.4h2.3L250.7,158z"/>
		<path d="M288,156.2c-1.9-0.1-3.8-0.5-5.6-1.1c-1.9-0.6-3.6-1.7-5.3-3.1c-3.5-2.8-5.3-6-5.3-9.7V98.1c-1.8-0.1-3.1-1.2-4-3.2
			l-2.5,1.4l-2.5-3.5l0.5-0.9l0.2,0.2l0.4-0.4l0.4-0.2c1.2-1.1,2.5-2.3,3.9-3.6c1.4-1.3,3.3-3,5.6-5c1.3-0.8,2.9-2.1,4.7-3.9
			c0.8-0.7,1.4-1.2,1.8-1.6v-2.1c4.8,6.8,9,10.2,12.7,10.2c0.8,0,2.7-0.8,5.6-2.5v2.1c-0.2,0.7-0.4,1.5-0.4,2.5
			c-0.9,2.7-2.2,4.9-3.7,6.6c-1.5,1.7-3.1,2.9-4.7,3.6v37.4c0,0.7,0.3,1.6,0.9,2.8c1.1,2.2,3.5,3.3,7.2,3.3c1.3,0,2.8-0.4,4.6-1.1
			l0.7,1.2L288,156.2z M295.3,66.2c-0.8,1.5-1.8,2.8-3,3.9c-1.2,1.1-2.6,2-4.2,2.7c-1.6,0.7-3.2,1.1-4.8,1.1h-1.4v-0.2h-1.8
			l-0.4-0.2c-4.5,0-7.2-1.8-8.3-5.4l-2.8,1.4l-2.3-3.9c0.9-0.9,1.9-1.7,3-2.2c1.1-0.5,2-1,3-1.5l-0.4,0.4c0.4-0.2,0.8-0.6,1.5-1.1
			c0.6-0.5,1.3-1,1.8-1.5c0.8-0.6,1.8-1.3,2.9-2.1c1.1-0.8,2.3-1.7,3.6-2.6c3,4.5,6.2,6.7,9.5,6.7c0.6-0.2,1.1-0.4,1.5-0.4
			c0.4-0.1,0.9-0.2,1.5-0.4h-0.2l0.4-0.4h0.2l0.2-0.2h0.2l0.2-0.2h1.2v1.6C296.4,63.2,296,64.7,295.3,66.2z"/>
		<path d="M357.7,156.8c-1.6-0.1-3.3-0.5-4.9-1.2c-1.6-0.7-3.2-1.6-4.7-2.8c-2.8-2.2-4.2-5-4.2-8.3v-46c-0.5,0-0.8-0.1-1.1-0.2h-0.4
			l-0.2-0.2l-0.7-0.4h0.2c-1.9-0.5-3.4-1.1-4.6-1.9c-1.2-0.8-2.2-1.9-3.2-3.2l-7.2,5.8v36.9c1.4,0.6,2.7,1.2,3.9,1.8
			c1.2,0.6,2.1,1.2,2.8,1.8c1.3,0.8,2.4,1.7,3.4,2.7c1,1,1.9,2,2.7,3.1l-16.3,11.8c-6.3-6-12.8-9-19.3-9h-0.5l-0.2,0.2h-0.9
			l-0.2,0.2h-0.7l-0.2,0.2h-1.8c0.9-4.6,3.7-8.2,8.3-10.9V97.6c-2.1-3.5-5-5.3-8.8-5.3l-0.4-0.2h-0.9v-1.2L315.7,73
			c1.9,1.6,3.5,3.1,4.8,4.5c1.3,1.3,2.4,2.7,3.2,4c1.9,2.9,2.9,6,3,9.3l20.7-17.4c4.9,6.8,8.7,10.2,11.4,10.2c1.3,0,4.3-1,9-3V83
			l-0.2,0.4v1.8l-0.2,0.4c0,2.8-1.6,5.8-4.7,9v40.9c0,2.3,1.8,3.5,5.3,3.5h0.7l0.2-0.2h1.4l0.2-0.2h2.3L357.7,156.8z"/>
		<path d="M392,156.2c-1.9-0.1-3.8-0.5-5.6-1.1c-1.9-0.6-3.6-1.7-5.3-3.1c-3.5-2.8-5.3-6-5.3-9.7V98.1c-1.8-0.1-3.1-1.2-4-3.2
			l-2.5,1.4l-2.5-3.5l0.5-0.9l0.2,0.2l0.4-0.4l0.4-0.2c1.2-1.1,2.5-2.3,3.9-3.6c1.4-1.3,3.3-3,5.6-5c1.3-0.8,2.9-2.1,4.7-3.9
			c0.8-0.7,1.4-1.2,1.8-1.6v-2.1c4.8,6.8,9,10.2,12.7,10.2c0.8,0,2.7-0.8,5.6-2.5v2.1c-0.2,0.7-0.4,1.5-0.4,2.5
			c-0.9,2.7-2.2,4.9-3.7,6.6c-1.5,1.7-3.1,2.9-4.7,3.6v37.4c0,0.7,0.3,1.6,0.9,2.8c1.1,2.2,3.5,3.3,7.2,3.3c1.3,0,2.8-0.4,4.6-1.1
			l0.7,1.2L392,156.2z M399.3,66.2c-0.8,1.5-1.8,2.8-3,3.9c-1.2,1.1-2.6,2-4.2,2.7c-1.6,0.7-3.2,1.1-4.8,1.1h-1.4v-0.2h-1.8
			l-0.4-0.2c-4.5,0-7.2-1.8-8.3-5.4l-2.8,1.4l-2.3-3.9c0.9-0.9,1.9-1.7,3-2.2c1.1-0.5,2-1,3-1.5l-0.4,0.4c0.4-0.2,0.8-0.6,1.5-1.1
			c0.6-0.5,1.3-1,1.8-1.5c0.8-0.6,1.8-1.3,2.9-2.1c1.1-0.8,2.3-1.7,3.6-2.6c3,4.5,6.2,6.7,9.5,6.7c0.6-0.2,1.1-0.4,1.5-0.4
			c0.4-0.1,0.9-0.2,1.5-0.4h-0.2l0.4-0.4h0.2l0.2-0.2h0.2l0.2-0.2h1.2v1.6C400.4,63.2,400,64.7,399.3,66.2z"/>
		<path d="M461.7,156.8c-1.6-0.1-3.3-0.5-4.9-1.2c-1.6-0.7-3.2-1.6-4.7-2.8c-2.8-2.2-4.2-5-4.2-8.3v-46c-0.5,0-0.8-0.1-1.1-0.2h-0.4
			l-0.2-0.2l-0.7-0.4h0.2c-1.9-0.5-3.4-1.1-4.6-1.9c-1.2-0.8-2.2-1.9-3.2-3.2l-7.2,5.8v36.9c1.4,0.6,2.7,1.2,3.9,1.8
			c1.2,0.6,2.1,1.2,2.8,1.8c1.3,0.8,2.4,1.7,3.4,2.7c1,1,1.9,2,2.7,3.1l-16.3,11.8c-6.3-6-12.8-9-19.3-9h-0.5l-0.2,0.2h-0.9
			l-0.2,0.2h-0.7l-0.2,0.2h-1.8c0.9-4.6,3.7-8.2,8.3-10.9V97.6c-2.1-3.5-5-5.3-8.8-5.3l-0.4-0.2h-0.9v-1.2L419.7,73
			c1.9,1.6,3.5,3.1,4.8,4.5c1.3,1.3,2.4,2.7,3.2,4c1.9,2.9,2.9,6,3,9.3l20.7-17.4c4.9,6.8,8.7,10.2,11.4,10.2c1.3,0,4.3-1,9-3V83
			l-0.2,0.4v1.8l-0.2,0.4c0,2.8-1.6,5.8-4.7,9v40.9c0,2.3,1.8,3.5,5.3,3.5h0.7l0.2-0.2h1.4l0.2-0.2h2.3L461.7,156.8z"/>
		<path d="M521.5,41.5c0,3.4-2,7.1-6,11.1c-3.6,3.9-7.3,5.9-10.9,6.1h-0.9c-5.4,0-9.5-0.7-12.3-2.1h-0.2l-0.5-0.2
			c-0.7,0-2.2-0.2-4.4-0.5c-2.3-0.4-3.8-0.5-4.4-0.5c-4.3,0-8,2.1-10.9,6.3v-2.5c0-5.4,2-10.2,6.1-14.6c2-2,4.2-3.5,6.7-4.6
			c2.5-1.1,5-1.6,7.7-1.8l0.4-0.4c1.6,0.2,3.6,0.6,5.8,1.1c2.2,0.5,4.6,1,7,1.6c2,0.6,3.6,1.1,4.9,1.5c1.3,0.4,2.3,0.7,3,0.8
			l0.2,0.2h0.5c2.6,0,4.9-0.7,7-2.1L521.5,41.5z M510.4,61.2c-0.6,1.6-1.1,3.3-1.6,4.9v50.2c0,4.8-2.5,9.5-7.4,14.1
			c-5.2,4.6-10.3,6.9-15.3,6.9v-1.1c1.3-2.2,2.2-4,2.8-5.4c0.6-1.4,0.9-2.5,0.9-3.3v-19.7c-0.7-0.2-1.2-0.4-1.4-0.5H487l-0.4-0.2
			c-2.7,0.1-4.3,1.7-4.9,4.7c-2.1-0.5-3.9-1.8-5.4-4c-1.5-2.2-2.2-4.5-2.2-6.7c0-4,1.3-7.3,3.9-10c2.6-2.7,5.9-4,10-4h0.9l0.4,0.2
			h0.5V80c0-5.2,2.2-9.5,6.7-13.2c2-1.6,4.1-3,6.3-4.2c2.2-1.2,4.7-2.2,7.4-3l0.5,1.2L510.4,61.2z M566.4,157.1h-0.9
			c-2.7,0-5.2-0.5-7.4-1.4c-2.2-0.9-4.2-2.4-5.8-4.4c-2.1-2.5-4.5-6.8-7-13l-0.2-0.2l-16.3,18.3c-1.4-0.9-2.5-1.7-3.4-2.3
			c-0.9-0.6-1.5-1-1.8-1.2h0.2c-5.3-3.3-12.1-4.9-20.4-4.9c-11,0-20.3,2.9-27.8,8.6c4.1-10.8,13.1-18.7,27.1-23.7
			c4.3-1.5,8.3-2.4,11.9-2.6c0.4,0,0.7-0.1,1.1-0.2c1.3,0,2-0.1,2.1-0.2h0.9c8.5,0,15.5,2.1,20.7,6.3l1.8-1.8l3.9,3
			c-0.5-1.4-1.3-3.9-2.4-7.6c-1.1-3.6-2.5-8.4-4.3-14.2c-1.2-3.3-2.2-6-3.2-8.3c-0.9-2.2-1.9-3.8-2.8-4.7c-0.1,2-0.2,3.6-0.4,4.9
			c-0.1,1.3-0.3,2.4-0.5,3.3c-1.1,4-3.9,7.8-8.4,11.4h0.2c-4.2,3.5-8.6,5.3-13.2,5.3l-0.7-1.8h0.9c0.2-0.4,0.6-0.8,1.1-1.2
			c0.5-0.5,0.8-1,1.1-1.6v0.2c0-0.4,0.2-1.1,0.5-2.1c0.2-0.6,0.5-1.5,0.9-2.8V64.5c0.6-2.6,1.3-4.7,2.1-6.3
			c1.4-3.3,4.3-6.7,8.6-10.4c2.2-1.9,4.4-3.4,6.7-4.5c2.2-1.1,4.6-1.8,7.2-2.2c-0.6,0.7-1.3,1.6-2.3,2.8c-0.9,1.2-1.7,2.2-2.3,3
			l0.2-0.2l-1.6,4.7V84l24.6-45.9l1.2,0.4c0,1.4,2.1,2.8,6.3,4.2c1.3,0.5,2.8,0.7,4.4,0.7c3.6,0,6.7-1.3,9.3-3.9l0.4,1.2l0.7-0.7
			c0,6-1.8,11.1-5.3,15.5c-3.8,5-8.5,7.6-14.2,7.6c-2.6,0-4.7-0.4-6.3-1.2h-0.4l-11.8,21.3c4.8,4.8,8.8,10.2,12.1,16.2
			c0.8,1.6,1.6,3.4,2.4,5.2c0.8,1.8,1.6,3.7,2.4,5.7c0.5,1.5,1.1,3.5,1.8,5.8c0.8,2.3,1.7,5,2.7,8.1c3,8.1,6.4,12.2,10,12.5l0.4-0.5
			c0.4,0.4,0.6,0.5,0.9,0.5c1.3,0,3.1-0.9,5.4-2.6l3.2,1.9L566.4,157.1z"/>
	</g>
</g>
</svg>
